<svg width="32" height="32" viewBox="0 0 32 32" fill="none" xmlns="http://www.w3.org/2000/svg">
<rect width="32" height="32" fill="#003052"/>
<path d="M26.4648 13.8503L26.4616 13.8449C26.4616 13.8417 26.4616 13.8417 26.4584 13.8395L24.8004 9.58231C24.7352 9.41151 24.5705 9.29872 24.3899 9.29872H19.404V4.94582C19.404 4.70089 19.2073 4.5 18.9603 4.5H14.0311C13.7874 4.5 13.5875 4.69767 13.5875 4.94582V9.29872H8.61333C8.43267 9.29872 8.26805 9.41152 8.20283 9.5791L6.53091 13.8473C6.52236 13.8634 6.5277 13.8827 6.52236 13.9021C6.5138 13.9375 6.50098 13.9741 6.50098 14.0117V26.0542C6.50098 26.2991 6.69767 26.5 6.94461 26.5H26.0573C26.3011 26.5 26.501 26.3023 26.501 26.0542L26.4999 14.0161C26.4999 13.9634 26.486 13.914 26.47 13.8678C26.4646 13.8592 26.4669 13.8556 26.4648 13.8503ZM14.475 9.76384C14.475 9.75847 14.4782 9.74987 14.4782 9.7445C14.4782 9.73591 14.475 9.73054 14.475 9.72516V5.38822H18.52V11.4352H14.475V9.76384ZM8.91415 10.1871H13.5911V11.4354H13.0352C12.7915 11.4354 12.5916 11.6331 12.5916 11.8812C12.5916 12.1283 12.7883 12.3271 13.0352 12.3271H19.9614C20.2051 12.3271 20.405 12.1294 20.405 11.8812C20.405 11.6342 20.2083 11.4354 19.9614 11.4354H19.4055V10.1871H24.0876L25.4036 13.5667H7.58967L8.91415 10.1871ZM25.611 25.6126H7.38437V16.8971H25.611V25.6126ZM25.611 16.0097H7.38437V14.4617H25.611V16.0097Z" fill="#5CACE6"/>
<path d="M6.39844 26.0537V14.0117C6.39844 13.9579 6.41768 13.8994 6.42285 13.8779C6.42293 13.8765 6.42261 13.8748 6.42285 13.8691C6.42323 13.8604 6.42587 13.8363 6.4375 13.8096H6.43555L8.10742 9.54199L8.14355 9.46777C8.2393 9.30273 8.41841 9.19631 8.61328 9.19629L8.61333 9.29872L8.54688 9.30371C8.39331 9.32747 8.25997 9.43239 8.20283 9.5791L6.53091 13.8473C6.52236 13.8634 6.5277 13.8827 6.52236 13.9021C6.5138 13.9375 6.50098 13.9741 6.50098 14.0117V26.0542C6.50098 26.2991 6.69767 26.5 6.94461 26.5H26.0573C26.3011 26.5 26.501 26.3023 26.501 26.0542L26.4999 14.0161C26.4999 13.9899 26.4967 13.964 26.4912 13.9395L26.47 13.8678L26.4648 13.8503L26.4616 13.8449C26.4616 13.8417 26.4616 13.8417 26.4584 13.8395L24.8004 9.58231C24.7433 9.43301 24.6103 9.32772 24.457 9.30371L24.3899 9.29872L24.3896 9.19629C24.6124 9.19629 24.815 9.33509 24.8955 9.54492L26.5479 13.7881L26.5488 13.7891L26.5498 13.792L26.5527 13.7979L26.5566 13.8047L26.5596 13.8125C26.561 13.8162 26.5615 13.8199 26.5625 13.8232L26.5664 13.834C26.5835 13.8832 26.6025 13.9458 26.6025 14.0156L26.6035 26.0537C26.6035 26.3582 26.3577 26.6024 26.0576 26.6025H6.94434C6.64012 26.6024 6.39844 26.354 6.39844 26.0537ZM25.611 16.8971V25.6126H7.38437V16.8971H25.611ZM7.48633 25.5107H25.5088V16.999H7.48633V25.5107ZM25.611 14.4617V16.0097H7.38437V14.4617H25.611ZM7.48633 15.9072H25.5088V14.5635H7.48633V15.9072ZM13.5911 10.1871V11.4354H13.0352L13.0352 11.333H13.4893V10.2891H8.98438L7.73926 13.4648H25.2549L24.0176 10.2891H19.5078V11.333H19.9609L19.9614 11.4354H19.4055V10.1871H24.0876L25.4036 13.5667H7.58967L8.91415 10.1871H13.5911ZM12.4893 11.8809C12.4895 11.5764 12.7351 11.333 13.0352 11.333L13.0352 11.4354L12.9463 11.4443C12.7448 11.4855 12.5918 11.6642 12.5916 11.8812L12.6006 11.9717C12.6359 12.146 12.7713 12.2829 12.9453 12.3184L13.0352 12.3271H19.9614C20.1746 12.3271 20.3539 12.1757 20.3955 11.9717L20.405 11.8812C20.4048 11.6654 20.2545 11.4859 20.0518 11.4443L19.9614 11.4354L19.9609 11.333C20.2648 11.333 20.5066 11.5781 20.5068 11.8809C20.5068 12.1855 20.2611 12.4297 19.9609 12.4297H13.0352C12.7312 12.4297 12.4893 12.1837 12.4893 11.8809ZM18.52 5.38822V11.4352H14.475V9.76384L14.4782 9.7445L14.475 9.72516V5.38822H18.52ZM19.404 4.94582C19.404 4.70089 19.2073 4.5 18.9603 4.5L18.96 4.39746C19.2643 4.39746 19.5059 4.64586 19.5059 4.94629V9.19629H24.3896L24.3899 9.29872H19.404V4.94582ZM13.4854 4.94629C13.4854 4.64167 13.7311 4.39746 14.0312 4.39746L14.0311 4.5C13.7874 4.5 13.5875 4.69767 13.5875 4.94582V9.29872H8.61333L8.61328 9.19629H13.4854V4.94629ZM18.96 4.39746L18.9603 4.5H14.0311L14.0312 4.39746H18.96ZM14.5801 9.74414C14.5801 9.74972 14.5805 9.75527 14.5801 9.75879C14.5797 9.76222 14.5785 9.76531 14.5781 9.76758L14.5762 9.77734C14.5763 9.77655 14.5769 9.77521 14.5771 9.77344V11.333H18.418V5.49023H14.5771V9.72559C14.5779 9.73104 14.5801 9.73714 14.5801 9.74414Z" fill="#5CACE6"/>
</svg>
