<svg width="32" height="32" viewBox="0 0 32 32" fill="none" xmlns="http://www.w3.org/2000/svg">
<rect width="32" height="32" fill="#2D6887"/>
<path d="M22.1582 13.7299C23.1691 13.7299 23.9906 13.0362 23.9906 12.1824C23.9906 11.3288 23.1691 10.635 22.1582 10.635C21.1472 10.635 20.3257 11.3287 20.3257 12.1824C20.3257 13.0361 21.1472 13.7299 22.1582 13.7299ZM22.1582 11.2858C22.7441 11.2858 23.22 11.6876 23.22 12.1824C23.22 12.6773 22.7441 13.0791 22.1582 13.0791C21.5722 13.0791 21.0963 12.6773 21.0963 12.1824C21.0963 11.6876 21.5722 11.2858 22.1582 11.2858ZM30.3342 7.10035C30.275 6.97939 30.1365 6.90042 29.9814 6.89942C29.27 6.89542 28.877 6.50155 28.4603 6.0847C27.872 5.4969 27.1404 4.76518 25.5838 5.70782C25.4832 5.7688 25.4228 5.86676 25.4228 5.97172V9.2466C24.9872 9.37855 24.6723 9.72843 24.6581 10.1503C24.5966 11.9516 24.3752 13.0152 23.9609 13.496C23.6578 13.8479 23.2577 13.8639 22.5167 13.8609C21.4714 13.8579 20.0462 13.8529 18.5038 15.3624L16.5033 17.0518L14.5027 15.3624C12.9615 13.8519 11.5339 13.8569 10.4911 13.8609C9.75122 13.8639 9.34993 13.8479 9.04689 13.496C8.63257 13.0152 8.4112 11.9516 8.34965 10.1503C8.33545 9.72743 8.02176 9.37855 7.58496 9.2466V5.97172C7.58496 5.86675 7.52577 5.76879 7.42397 5.70782C5.86616 4.76515 5.13458 5.4969 4.54744 6.0847C4.13076 6.50155 3.73775 6.89443 3.02633 6.89942C2.87126 6.90042 2.73276 6.97939 2.67356 7.10035C2.61437 7.22131 2.64751 7.36025 2.75642 7.45322C4.01474 8.52485 4.8138 8.19395 5.45418 7.92806C5.92178 7.73413 6.24376 7.60119 6.81432 7.91607V9.24759C6.64978 9.29758 6.49707 9.37655 6.37397 9.48351C6.15853 9.66845 6.0449 9.91137 6.05081 10.1673C6.13841 13.791 6.77999 14.8428 8.17328 15.5985V20.0249L7.00254 26.5696C6.94809 26.8725 7.04515 27.1544 7.28072 27.3863C7.51511 27.6162 7.85602 27.7432 8.2147 27.7432C8.31295 27.7432 8.41238 27.7342 8.51182 27.7142C8.9652 27.6242 9.30376 27.3473 9.41621 26.9724L10.8474 22.2251L12.2786 26.9724C12.391 27.3463 12.7296 27.6242 13.183 27.7142C13.6434 27.8051 14.1146 27.6792 14.4141 27.3863C14.6508 27.1544 14.7467 26.8715 14.6922 26.5696L13.5215 20.0249V17.2829L15.6168 19.0523C15.8334 19.2352 16.1222 19.3362 16.43 19.3362C16.7295 19.3362 17.0112 19.2392 17.2267 19.0653C17.2302 19.0633 17.2338 19.0603 17.2361 19.0583L19.4805 17.2569V20.0258L18.3098 26.5705C18.2553 26.8734 18.3524 27.1553 18.588 27.3872C18.8875 27.6811 19.3598 27.806 19.8191 27.7151C20.2724 27.6251 20.611 27.3482 20.7235 26.9733L22.1546 22.2259L23.587 26.9733C23.6994 27.3472 24.038 27.6251 24.4914 27.7151C24.5908 27.7351 24.6903 27.744 24.7885 27.744C25.1472 27.744 25.4881 27.6171 25.7225 27.3872C25.9592 27.1553 26.0551 26.8724 26.0007 26.5705L24.8299 20.0258V15.5993C26.2232 14.8436 26.8648 13.791 26.9524 10.1682C26.9583 9.91225 26.8435 9.67034 26.6292 9.4844C26.5049 9.37743 26.3534 9.29746 26.1889 9.24848V7.91695C26.7606 7.60106 27.0814 7.73501 27.549 7.92895C28.1906 8.19486 28.9896 8.52673 30.2468 7.45411C30.3557 7.36114 30.3888 7.22219 30.3296 7.10123L30.3342 7.10035ZM6.81549 7.18632C6.08631 6.9414 5.53942 7.16832 5.11561 7.34426C4.69302 7.5192 4.37813 7.65015 3.88687 7.40224C4.44086 7.20031 4.81612 6.82545 5.13692 6.50456C5.40326 6.23864 5.63172 6.00973 5.88979 5.93475C5.98094 5.90876 6.24017 5.83279 6.81667 6.14468V7.18631L6.81549 7.18632ZM16.1649 18.5922L13.4127 16.2681C13.3026 16.1751 13.1369 16.1471 12.9925 16.1981C12.8481 16.2481 12.7545 16.367 12.7545 16.499V20.0497C12.7545 20.0657 12.7557 20.0827 12.7593 20.0987L13.9336 26.6674C13.9537 26.7804 13.9205 26.8773 13.8329 26.9633C13.7004 27.0933 13.5027 27.1103 13.3618 27.0823C13.2801 27.0663 13.086 27.0083 13.0268 26.8134L11.4559 21.6061C11.3837 21.3682 11.1399 21.2082 10.8487 21.2082C10.5575 21.2082 10.3124 21.3682 10.2414 21.6061L8.67057 26.8134C8.61256 27.0073 8.41724 27.0663 8.33556 27.0823C8.19469 27.1103 7.997 27.0933 7.86442 26.9633C7.77682 26.8763 7.74367 26.7804 7.7638 26.6674L8.93808 20.0987C8.94045 20.0827 8.94282 20.0667 8.94282 20.0497V15.4183C8.94282 15.3033 8.87179 15.1974 8.7546 15.1394C7.61229 14.5646 6.91151 13.9418 6.82035 10.155C6.81799 10.075 6.85468 9.99907 6.92452 9.9401C6.99792 9.87712 7.09735 9.84113 7.20034 9.84113C7.40749 9.84113 7.57323 9.98608 7.58032 10.171C7.64661 12.1363 7.90703 13.2808 8.42435 13.8807C8.97361 14.5185 9.74543 14.5155 10.4935 14.5135C11.4879 14.5105 12.6148 14.5065 13.9288 15.798C13.9347 15.804 13.9418 15.81 13.9489 15.816L16.2312 17.7433V17.7443H16.2324L16.7012 18.1402C16.7722 18.2002 16.8113 18.2812 16.8113 18.3671C16.8113 18.4531 16.7722 18.5341 16.7012 18.594C16.5532 18.719 16.3129 18.719 16.1649 18.594L16.1649 18.5922ZM24.2534 15.1385C24.1362 15.1975 24.0652 15.3034 24.0652 15.4174V20.0488C24.0652 20.0648 24.0664 20.0818 24.0699 20.0978L25.2442 26.6665C25.2643 26.7795 25.2312 26.8764 25.1436 26.9624C25.011 27.0923 24.8133 27.1093 24.6724 27.0814C24.5919 27.0654 24.3966 27.0074 24.3374 26.8124L22.7666 21.6052C22.6944 21.3673 22.4505 21.2073 22.1593 21.2073C21.8681 21.2073 21.6231 21.3673 21.552 21.6052L19.9812 26.8124C19.9232 27.0064 19.7279 27.0654 19.6462 27.0814C19.5053 27.1093 19.3076 27.0923 19.1751 26.9624C19.0875 26.8754 19.0543 26.7795 19.0744 26.6665L20.2487 20.0978C20.2511 20.0818 20.2535 20.0658 20.2535 20.0488V16.4981C20.2535 16.3681 20.1611 16.2502 20.0203 16.1992C19.8782 16.1482 19.7148 16.1732 19.6036 16.2621L17.4799 17.9666C17.4231 17.8606 17.3462 17.7626 17.2455 17.6787L17.049 17.5127L19.0602 15.8143C19.0673 15.8083 19.0732 15.8023 19.0803 15.7963C20.3943 14.5048 21.5213 14.5088 22.5156 14.5118C23.2638 14.5148 24.0356 14.5168 24.5848 13.879C25.1021 13.2782 25.3625 12.1346 25.4288 10.1693C25.4348 9.98438 25.6017 9.83942 25.8088 9.83942C25.9118 9.83942 26.0124 9.87541 26.0846 9.93839C26.1533 9.99737 26.19 10.0743 26.1888 10.1533C26.0977 13.94 25.3969 14.5626 24.2546 15.1377L24.2534 15.1385ZM27.8935 7.34421C27.6023 7.22326 27.2543 7.0793 26.8281 7.0793C26.6328 7.0793 26.4221 7.10929 26.1936 7.18626V6.14463C26.7701 5.83272 27.0305 5.90871 27.1205 5.9347C27.3786 6.00968 27.607 6.23859 27.8734 6.50451C28.1942 6.8254 28.5694 7.20028 29.1234 7.40219C28.6322 7.65011 28.3161 7.51915 27.8947 7.34421H27.8935ZM10.8499 13.7299C11.8608 13.7299 12.6823 13.0362 12.6823 12.1825C12.6823 11.3288 11.8608 10.635 10.8499 10.635C9.83893 10.635 9.01742 11.3288 9.01742 12.1825C9.01742 13.0362 9.83893 13.7299 10.8499 13.7299ZM10.8499 11.2858C11.4358 11.2858 11.9117 11.6876 11.9117 12.1825C11.9117 12.6773 11.4358 13.0792 10.8499 13.0792C10.2639 13.0792 9.78805 12.6773 9.78805 12.1825C9.78805 11.6876 10.2639 11.2858 10.8499 11.2858Z" fill="white"/>
<path d="M25.5838 5.70782C27.1404 4.76518 27.872 5.4969 28.4603 6.0847C28.877 6.50155 29.27 6.89542 29.9814 6.89942C30.1365 6.90042 30.275 6.97939 30.3342 7.10035L30.3296 7.10123C30.3888 7.22219 30.3557 7.36114 30.2468 7.45411C28.9896 8.52673 28.1906 8.19486 27.549 7.92895C27.0814 7.73501 26.7606 7.60106 26.1889 7.91695V9.24848C26.3534 9.29746 26.5049 9.37743 26.6292 9.4844C26.8435 9.67034 26.9583 9.91225 26.9524 10.1682C26.8648 13.791 26.2232 14.8436 24.8299 15.5993V20.0258L26.0007 26.5705C26.0551 26.8724 25.9592 27.1553 25.7225 27.3872C25.4881 27.6171 25.1472 27.744 24.7885 27.744C24.6903 27.744 24.5908 27.7351 24.4914 27.7151C24.038 27.6251 23.6994 27.3472 23.587 26.9733L22.1546 22.2259L20.7235 26.9733C20.611 27.3482 20.2724 27.6251 19.8191 27.7151C19.3598 27.806 18.8875 27.6811 18.588 27.3872C18.3524 27.1553 18.2553 26.8734 18.3098 26.5705L19.4805 20.0258V17.2569L17.2361 19.0583C17.2338 19.0603 17.2302 19.0633 17.2267 19.0653C17.0112 19.2392 16.7295 19.3362 16.43 19.3362C16.1222 19.3362 15.8334 19.2352 15.6168 19.0523L13.5215 17.2829V20.0249L14.6922 26.5696C14.7467 26.8715 14.6508 27.1544 14.4141 27.3863C14.1146 27.6792 13.6434 27.8051 13.183 27.7142C12.7296 27.6242 12.391 27.3463 12.2786 26.9724L10.8474 22.2251L9.41621 26.9724C9.30376 27.3473 8.9652 27.6242 8.51182 27.7142C8.41238 27.7342 8.31295 27.7432 8.2147 27.7432C7.85602 27.7432 7.51511 27.6162 7.28072 27.3863C7.04515 27.1544 6.94809 26.8725 7.00254 26.5696L8.17328 20.0249V15.5985C6.77999 14.8428 6.13841 13.791 6.05081 10.1673C6.0449 9.91137 6.15853 9.66845 6.37397 9.48351C6.49707 9.37655 6.64978 9.29758 6.81432 9.24759V7.91607C6.24376 7.60119 5.92178 7.73413 5.45418 7.92806C4.8138 8.19395 4.01474 8.52485 2.75642 7.45322C2.64751 7.36025 2.61437 7.22131 2.67356 7.10035C2.73276 6.97939 2.87126 6.90042 3.02633 6.89942C3.73775 6.89443 4.13076 6.50155 4.54744 6.0847C5.13458 5.4969 5.86616 4.76515 7.42397 5.70782C7.52577 5.76879 7.58496 5.86675 7.58496 5.97172V9.2466C8.02176 9.37855 8.33545 9.72743 8.34965 10.1503C8.4112 11.9516 8.63257 13.0152 9.04689 13.496C9.34993 13.8479 9.75122 13.8639 10.4911 13.8609C11.5339 13.8569 12.9615 13.8519 14.5027 15.3624L16.5033 17.0518L18.5038 15.3624C20.0462 13.8529 21.4714 13.8579 22.5167 13.8609C23.2577 13.8639 23.6578 13.8479 23.9609 13.496C24.3752 13.0152 24.5966 11.9516 24.6581 10.1503C24.6723 9.72843 24.9872 9.37855 25.4228 9.2466V5.97172C25.4228 5.86676 25.4832 5.7688 25.5838 5.70782ZM7.20034 9.84113C7.09735 9.84113 6.99792 9.87712 6.92452 9.9401C6.85468 9.99907 6.81799 10.075 6.82035 10.155C6.91151 13.9418 7.61229 14.5646 8.7546 15.1394C8.87179 15.1974 8.94282 15.3033 8.94282 15.4183V20.0497C8.94282 20.0667 8.94045 20.0827 8.93808 20.0987L7.7638 26.6674C7.74367 26.7804 7.77682 26.8763 7.86442 26.9633C7.997 27.0933 8.19469 27.1103 8.33556 27.0823C8.41724 27.0663 8.61256 27.0073 8.67057 26.8134L10.2414 21.6061C10.3124 21.3682 10.5575 21.2082 10.8487 21.2082C11.1399 21.2082 11.3837 21.3682 11.4559 21.6061L13.0268 26.8134C13.086 27.0083 13.2801 27.0663 13.3618 27.0823C13.5027 27.1103 13.7004 27.0933 13.8329 26.9633C13.9205 26.8773 13.9537 26.7804 13.9336 26.6674L12.7593 20.0987C12.7557 20.0827 12.7545 20.0657 12.7545 20.0497V16.499C12.7545 16.367 12.8481 16.2481 12.9925 16.1981C13.1369 16.1471 13.3026 16.1751 13.4127 16.2681L16.1649 18.5922L16.1649 18.594C16.3129 18.719 16.5532 18.719 16.7012 18.594C16.7722 18.5341 16.8113 18.4531 16.8113 18.3671C16.8113 18.2812 16.7722 18.2002 16.7012 18.1402L16.2324 17.7443H16.2312L13.9489 15.816C13.9418 15.81 13.9347 15.804 13.9288 15.798C12.6148 14.5065 11.4879 14.5105 10.4935 14.5135C9.74543 14.5155 8.97361 14.5185 8.42435 13.8807C7.90703 13.2808 7.64661 12.1363 7.58032 10.171C7.57323 9.98608 7.40749 9.84113 7.20034 9.84113ZM25.8088 9.83942C25.6017 9.83942 25.4348 9.98438 25.4288 10.1693C25.3625 12.1346 25.1021 13.2782 24.5848 13.879C24.0356 14.5168 23.2638 14.5148 22.5156 14.5118C21.5213 14.5088 20.3943 14.5048 19.0803 15.7963C19.0732 15.8023 19.0673 15.8083 19.0602 15.8143L17.049 17.5127L17.2455 17.6787C17.3462 17.7626 17.4231 17.8606 17.4799 17.9666L19.6036 16.2621C19.7148 16.1732 19.8782 16.1482 20.0203 16.1992C20.1611 16.2502 20.2535 16.3681 20.2535 16.4981V20.0488C20.2535 20.0658 20.2511 20.0818 20.2487 20.0978L19.0744 26.6665C19.0543 26.7795 19.0875 26.8754 19.1751 26.9624C19.3076 27.0923 19.5053 27.1093 19.6462 27.0814C19.7279 27.0654 19.9232 27.0064 19.9812 26.8124L21.552 21.6052C21.6231 21.3673 21.8681 21.2073 22.1593 21.2073C22.4505 21.2073 22.6944 21.3673 22.7666 21.6052L24.3374 26.8124C24.3966 27.0074 24.5919 27.0654 24.6724 27.0814C24.8133 27.1093 25.011 27.0923 25.1436 26.9624C25.2312 26.8764 25.2643 26.7795 25.2442 26.6665L24.0699 20.0978C24.0664 20.0818 24.0652 20.0648 24.0652 20.0488V15.4174C24.0652 15.3034 24.1362 15.1975 24.2534 15.1385L24.2546 15.1377C25.3969 14.5626 26.0977 13.94 26.1888 10.1533C26.19 10.0743 26.1533 9.99737 26.0846 9.93839C26.0124 9.87541 25.9118 9.83942 25.8088 9.83942ZM11.9117 12.1825C11.9117 11.6876 11.4358 11.2858 10.8499 11.2858C10.2639 11.2858 9.78805 11.6876 9.78805 12.1825C9.78805 12.6773 10.2639 13.0792 10.8499 13.0792C11.3993 13.0792 11.8519 12.7259 11.9062 12.2739L11.9117 12.1825ZM22.3457 10.6431C23.2687 10.7225 23.9904 11.3824 23.9906 12.1824C23.9906 13.0362 23.1691 13.7299 22.1582 13.7299C21.1472 13.7299 20.3257 13.0361 20.3257 12.1824C20.3257 11.3287 21.1472 10.635 22.1582 10.635L22.3457 10.6431ZM22.1582 11.2858C21.5722 11.2858 21.0963 11.6876 21.0963 12.1824C21.0963 12.6773 21.5722 13.0791 22.1582 13.0791C22.7441 13.0791 23.22 12.6773 23.22 12.1824C23.2198 11.7187 22.8016 11.3365 22.2666 11.2905L22.1582 11.2858ZM6.81667 6.14468C6.24017 5.83279 5.98094 5.90876 5.88979 5.93475C5.63172 6.00973 5.40326 6.23864 5.13692 6.50456C4.81612 6.82545 4.44086 7.20031 3.88687 7.40224C4.37813 7.65015 4.69302 7.5192 5.11561 7.34426C5.53942 7.16832 6.08631 6.9414 6.81549 7.18632L6.81667 6.14468ZM27.1205 5.9347C27.0305 5.90871 26.7701 5.83272 26.1936 6.14463V7.18626C26.4221 7.10929 26.6328 7.0793 26.8281 7.0793C27.2543 7.0793 27.6023 7.22326 27.8935 7.34421H27.8947C28.3161 7.51915 28.6322 7.65011 29.1234 7.40219C28.5694 7.20028 28.1942 6.8254 27.8734 6.50451C27.607 6.23859 27.3786 6.00968 27.1205 5.9347ZM12.6729 12.3403C12.579 13.1201 11.7977 13.7299 10.8499 13.7299C9.83893 13.7299 9.01742 13.0362 9.01742 12.1825C9.01742 11.3288 9.83893 10.635 10.8499 10.635L11.0371 10.6431C11.9602 10.7224 12.6821 11.3823 12.6823 12.1825L12.6729 12.3403Z" fill="white"/>
</svg>
