<svg width="32" height="32" viewBox="0 0 32 32" fill="none" xmlns="http://www.w3.org/2000/svg">
<rect width="32" height="32" fill="#003052"/>
<path d="M16.5 6C14.7765 6 13.3719 7.44332 13.3719 9.21429C13.3719 10.9853 14.7765 12.4318 16.5 12.4318C18.2234 12.4318 19.6312 10.9853 19.6312 9.21429C19.6312 7.44326 18.2235 6 16.5 6ZM16.5 6.8349C17.7847 6.8349 18.8176 7.89416 18.8176 9.21434C18.8176 10.5345 17.7837 11.5969 16.5 11.5969C15.2152 11.5969 14.1844 10.5345 14.1844 9.21434C14.1844 7.89416 15.2152 6.8349 16.5 6.8349ZM8.10589 8.24065C6.38238 8.24065 4.97472 9.68608 4.97472 11.4571C4.97472 13.2281 6.38238 14.6714 8.10589 14.6714C9.8294 14.6714 11.2339 13.2281 11.2339 11.4571C11.2339 9.68605 9.82935 8.24065 8.10589 8.24065ZM24.8961 8.24065C23.1726 8.24065 21.766 9.68608 21.766 11.4571C21.766 13.2281 23.1727 14.6714 24.8961 14.6714C26.6197 14.6714 28.0242 13.2281 28.0242 11.4571C28.0242 9.68605 26.6186 8.24065 24.8961 8.24065ZM8.10589 9.07555C9.39066 9.07555 10.4215 10.1369 10.4215 11.4571C10.4215 12.7773 9.39066 13.8397 8.10589 13.8397C6.82113 13.8397 5.78722 12.7773 5.78722 11.4571C5.78722 10.1369 6.82113 9.07555 8.10589 9.07555ZM24.8961 9.07555C26.1809 9.07555 27.2118 10.1369 27.2118 11.4571C27.2118 12.7773 26.1809 13.8397 24.8961 13.8397C23.6114 13.8397 22.5785 12.7773 22.5785 11.4571C22.5785 10.1369 23.6124 9.07555 24.8961 9.07555ZM16.5 13.1237C14.093 13.1237 12.1195 15.0189 11.9144 17.4379C11.0866 16.1876 9.69015 15.3673 8.10589 15.3673C5.56174 15.3673 3.5 17.4828 3.5 20.097V24.5846C3.5 24.6952 3.54367 24.8006 3.61984 24.8789C3.69703 24.9572 3.79961 25.001 3.90829 25C4.13071 24.9989 4.3115 24.8132 4.31251 24.5846V20.097C4.31251 17.9315 5.99845 16.2022 8.1059 16.2022C10.2133 16.2022 11.8962 17.9315 11.8962 20.097V24.5846C11.8972 24.8132 12.078 24.9989 12.3014 25C12.4091 25.001 12.5127 24.9572 12.5888 24.8789C12.665 24.8007 12.7087 24.6952 12.7087 24.5846V17.8544C12.7087 15.6889 14.3926 13.9586 16.5 13.9586C18.6074 13.9586 20.2934 15.6879 20.2934 17.8544V24.5846C20.2944 24.8132 20.4752 24.9989 20.6986 25C20.8063 25.001 20.9099 24.9572 20.9861 24.8789C21.0622 24.8006 21.1059 24.6952 21.1059 24.5846V20.097C21.1059 17.9315 22.7888 16.2022 24.8962 16.2022C27.0036 16.2022 28.6875 17.9315 28.6875 20.097V24.5846C28.6875 24.6952 28.7312 24.8006 28.8073 24.8789C28.8845 24.9572 28.9871 25.001 29.0958 25C29.3182 24.9989 29.499 24.8132 29.5 24.5846V20.097C29.5 17.4827 27.4403 15.3673 24.8962 15.3673C23.3118 15.3673 21.9153 16.1887 21.0877 17.4389C20.8836 15.0198 18.9071 13.1237 16.5 13.1237Z" fill="#5CACE6"/>
<path d="M20.2934 17.8544C20.2934 15.7556 18.7111 14.0673 16.6963 13.9639L16.5 13.9586C14.3926 13.9586 12.7087 15.6889 12.7087 17.8544V24.5846L12.7002 24.666C12.6844 24.746 12.646 24.8202 12.5888 24.8789L12.5273 24.9306C12.461 24.9761 12.3822 25.0007 12.3014 25C12.078 24.9989 11.8972 24.8132 11.8962 24.5846V20.097C11.8962 17.9315 10.2133 16.2022 8.1059 16.2022C5.99845 16.2022 4.31251 17.9315 4.31251 20.097V24.5846C4.3115 24.8132 4.13071 24.9989 3.90829 25C3.82686 25.0007 3.74907 24.9759 3.68262 24.9306L3.61984 24.8789C3.56265 24.8201 3.52363 24.7461 3.50781 24.666L3.5 24.5846V20.097C3.5 17.4828 5.56174 15.3673 8.10589 15.3673C9.69015 15.3673 11.0866 16.1876 11.9144 17.4379C12.1195 15.0189 14.093 13.1237 16.5 13.1237L16.7246 13.1289C19.0289 13.2425 20.8898 15.0957 21.0877 17.4389C21.9153 16.1887 23.3118 15.3673 24.8962 15.3673L25.1328 15.373C27.5667 15.4994 29.4998 17.5644 29.5 20.097V24.5846C29.499 24.8132 29.3182 24.9989 29.0958 25C29.0144 25.0007 28.9366 24.9759 28.8701 24.9306L28.8073 24.8789C28.7501 24.8201 28.7111 24.7461 28.6953 24.666L28.6875 24.5846V20.097C28.6873 17.9994 27.1072 16.3106 25.0928 16.207L24.8962 16.2022C22.7888 16.2022 21.1059 17.9315 21.1059 20.097V24.5846L21.0977 24.666C21.0818 24.746 21.0432 24.8202 20.9861 24.8789L20.9238 24.9306C20.8575 24.9759 20.7793 25.0008 20.6986 25C20.4752 24.9989 20.2944 24.8132 20.2934 24.5846V17.8544ZM11.0342 11.457C11.0342 9.79115 9.71319 8.44043 8.10547 8.44043C6.49763 8.44066 5.17483 9.79158 5.1748 11.457C5.1748 13.1223 6.49744 14.4714 8.10547 14.4717L8.10589 14.6714C6.38238 14.6714 4.97472 13.2281 4.97472 11.4571C4.97472 9.68608 6.38238 8.24065 8.10589 8.24065C9.82935 8.24065 11.2339 9.68605 11.2339 11.4571L11.2295 11.6221C11.1455 13.3168 9.77555 14.6714 8.10589 14.6714L8.10547 14.4717C9.71343 14.4717 11.0342 13.1227 11.0342 11.457ZM27.8242 11.457C27.8242 9.79131 26.5031 8.44062 24.8965 8.44043C23.2885 8.44043 21.9658 9.79135 21.9658 11.457C21.9658 13.1226 23.2884 14.4717 24.8965 14.4717L24.8961 14.6714L24.7354 14.667C23.086 14.5806 21.766 13.1727 21.766 11.4571C21.766 9.68608 23.1726 8.24065 24.8961 8.24065L25.0566 8.24512C26.705 8.33157 28.0242 9.74142 28.0242 11.4571L28.0205 11.6221C27.9365 13.3167 26.5657 14.6712 24.8961 14.6714L24.8965 14.4717C26.5043 14.4715 27.8242 13.1226 27.8242 11.457ZM10.4215 11.4571C10.4215 10.1369 9.39066 9.07555 8.10589 9.07555C6.82113 9.07555 5.78722 10.1369 5.78722 11.4571C5.78722 12.6948 6.69596 13.7056 7.86816 13.8271L8.10589 13.8397C9.31043 13.8397 10.2913 12.9058 10.4092 11.7012L10.4215 11.4571ZM27.2118 11.4571C27.2117 10.2194 26.3057 9.20929 25.1338 9.08789L24.8961 9.07555C23.6124 9.07555 22.5785 10.1369 22.5785 11.4571C22.5785 12.6947 23.4862 13.7055 24.6582 13.8271L24.8961 13.8397C26.1005 13.8395 27.0824 12.9057 27.2002 11.7012L27.2118 11.4571ZM19.4316 9.21386C19.4314 7.5486 18.1081 6.20021 16.5 6.2002C14.8922 6.2002 13.5725 7.54838 13.5723 9.21386C13.5723 10.8798 14.8923 12.2314 16.5 12.2314L16.5 12.4318L16.3398 12.4277C14.7434 12.3442 13.4571 11.0195 13.376 9.3789L13.3719 9.21429C13.3719 7.44332 14.7765 6 16.5 6L16.6602 6.00391C18.3097 6.08999 19.6309 7.49864 19.6312 9.21429C19.6312 10.9853 18.2234 12.4318 16.5 12.4318L16.5 12.2314C18.1079 12.2314 19.4316 10.8796 19.4316 9.21386ZM18.8176 9.21434C18.8174 7.97673 17.9095 6.96765 16.7373 6.84668L16.5 6.8349C15.2152 6.8349 14.1844 7.89416 14.1844 9.21434L14.1963 9.45898C14.3065 10.5832 15.1688 11.4717 16.2627 11.585L16.5 11.5969C17.7837 11.5969 18.8176 10.5345 18.8176 9.21434ZM20.4932 24.584L20.498 24.6289C20.5185 24.729 20.6041 24.7992 20.6992 24.7998C20.7509 24.8003 20.8038 24.7793 20.8428 24.7392C20.8829 24.6979 20.9062 24.6426 20.9062 24.5849V20.0967C20.9064 17.826 22.6737 16.0019 24.8965 16.0019C27.1191 16.0021 28.8875 17.8261 28.8877 20.0967V24.5849C28.8878 24.642 28.9098 24.697 28.9492 24.7383C28.9899 24.7795 29.0415 24.8003 29.0938 24.7998C29.201 24.7993 29.2986 24.7082 29.2998 24.5849V20.0967C29.2996 17.588 27.3249 15.5675 24.8965 15.5674C23.3835 15.5674 22.0478 16.3518 21.2549 17.5498L20.9365 18.0293L20.8887 17.456C20.6928 15.1352 18.798 13.3232 16.5 13.3232C14.2022 13.3232 12.3101 15.1342 12.1133 17.4551L12.0654 18.0273L11.748 17.5478C10.955 16.35 9.61841 15.5674 8.10547 15.5674C5.677 15.5676 3.70037 17.5882 3.7002 20.0967V24.5849C3.70029 24.6423 3.72295 24.697 3.7627 24.7383L3.79492 24.7656C3.82883 24.7887 3.86717 24.8001 3.90625 24.7998C4.01355 24.7993 4.11112 24.7082 4.1123 24.5849V20.0967C4.11247 17.8259 5.88299 16.0022 8.10547 16.0019C10.3283 16.0019 12.0955 17.8261 12.0957 20.0967V24.584L12.1006 24.6289C12.1211 24.7291 12.2075 24.7993 12.3027 24.7998C12.3543 24.8002 12.4064 24.7792 12.4453 24.7392C12.4855 24.6979 12.5087 24.6427 12.5088 24.5849V17.8545C12.5088 15.5837 14.2771 13.7588 16.5 13.7588C18.7228 13.7588 20.4932 15.5825 20.4932 17.8545V24.584ZM10.6211 11.457C10.6211 12.8822 9.50612 14.04 8.10547 14.04C6.70536 14.0398 5.58691 12.8824 5.58691 11.457C5.58695 10.0316 6.70549 8.87621 8.10547 8.87597C9.50598 8.87597 10.6211 10.0318 10.6211 11.457ZM27.4121 11.457C27.4121 12.882 26.297 14.0398 24.8965 14.04C23.4961 14.04 22.3789 12.8824 22.3789 11.457C22.3789 10.0315 23.4973 8.87597 24.8965 8.87597C26.2968 8.87616 27.4121 10.0319 27.4121 11.457ZM19.0176 9.21386C19.0176 10.6393 17.8993 11.7969 16.5 11.7969C15.0993 11.7969 13.9844 10.639 13.9844 9.21386C13.9846 7.78861 15.0998 6.63477 16.5 6.63477C17.8999 6.63478 19.0173 7.78838 19.0176 9.21386Z" fill="#5CACE6"/>
</svg>
