<svg width="32" height="32" viewBox="0 0 32 32" fill="none" xmlns="http://www.w3.org/2000/svg">
<rect width="32" height="32" fill="#003052"/>
<path d="M16.5 25.9998C12.7484 25.9998 9.28252 23.9981 7.40719 20.7495C5.53094 17.5017 5.53094 13.4982 7.40719 10.2504C9.28252 7.0017 12.7484 5.00006 16.5 5.00006C18.1363 4.99456 19.7507 5.38006 21.2076 6.12359C21.5693 6.30673 21.7139 6.749 21.5299 7.10976C21.3467 7.47146 20.9054 7.61614 20.5437 7.43208C19.2938 6.78836 17.9065 6.45322 16.5 6.45596C14.1045 6.45596 11.807 7.40735 10.1121 9.10036C8.41809 10.7944 7.46579 13.0917 7.46485 15.4871C7.46394 17.8826 8.41534 20.1801 10.1074 21.8748C11.8006 23.5698 14.0979 24.523 16.4934 24.5249C18.8889 24.5267 21.1872 23.5771 22.8832 21.884C24.5781 20.1918 25.5323 17.8952 25.5349 15.5C25.5395 15.4185 25.5395 15.337 25.5349 15.2555C25.4964 14.8517 25.794 14.4928 26.1988 14.4552C26.6035 14.4168 26.9615 14.7144 27 15.1191V15.5C26.9973 18.2836 25.8902 20.9529 23.9214 22.9215C21.9527 24.8902 19.2837 25.997 16.5 25.9998Z" fill="#5CACE6"/>
<path d="M16.3948 18.9996C16.2041 19.0023 16.0216 18.9261 15.8908 18.7897L11.2125 14.2543C10.9292 13.9736 10.9292 13.5197 11.2125 13.2398C11.5022 12.9635 11.9598 12.9635 12.2495 13.2398L16.4048 17.2872L25.7514 8.20654C26.0402 7.93115 26.4987 7.93115 26.7875 8.20654C27.0708 8.48732 27.0708 8.9412 26.7875 9.22109L16.9269 18.7897C16.7861 18.9297 16.5946 19.0059 16.3948 18.9996Z" fill="#5CACE6"/>
</svg>
